<svg version="1.1" viewBox="0.0 0.0 807.2729658792651 490.0" fill="none" stroke="none" stroke-linecap="square" stroke-miterlimit="10" xmlns:xlink="http://www.w3.org/1999/xlink" xmlns="http://www.w3.org/2000/svg"><clipPath id="p.0"><path d="m0 0l807.27295 0l0 490.0l-807.27295 0l0 -490.0z" clip-rule="nonzero"/></clipPath><g clip-path="url(#p.0)"><path fill="#000000" fill-opacity="0.0" d="m0 0l807.27295 0l0 490.0l-807.27295 0z" fill-rule="evenodd"/><path fill="#eeeeee" d="m196.8924 124.27559l0 0c0 -18.49067 14.989639 -33.480316 33.4803 -33.480316l0 0c8.879532 0 17.395386 3.527382 23.674164 9.80616c6.2787933 6.278778 9.806168 14.794624 9.806168 23.674156l0 0c0 18.490662 -14.989655 33.480316 -33.48033 33.480316l0 0c-18.490662 0 -33.4803 -14.989655 -33.4803 -33.480316z" fill-rule="evenodd"/><path stroke="#595959" stroke-width="1.0" stroke-linejoin="round" stroke-linecap="butt" d="m196.8924 124.27559l0 0c0 -18.49067 14.989639 -33.480316 33.4803 -33.480316l0 0c8.879532 0 17.395386 3.527382 23.674164 9.80616c6.2787933 6.278778 9.806168 14.794624 9.806168 23.674156l0 0c0 18.490662 -14.989655 33.480316 -33.48033 33.480316l0 0c-18.490662 0 -33.4803 -14.989655 -33.4803 -33.480316z" fill-rule="evenodd"/><path fill="#000000" d="m232.13797 131.19559l-1.640625 0l0 -10.453125q-0.59375 0.5625 -1.5625 1.140625q-0.953125 0.5625 -1.71875 0.84375l0 -1.59375q1.375 -0.640625 2.40625 -1.5625q1.03125 -0.921875 1.453125 -1.78125l1.0625 0l0 13.40625z" fill-rule="nonzero"/><path fill="#eeeeee" d="m525.2598 124.27559l0 0c0 -18.49067 14.989685 -33.480316 33.480347 -33.480316l0 0c8.879517 0 17.395386 3.527382 23.674133 9.80616c6.2788086 6.278778 9.806152 14.794624 9.806152 23.674156l0 0c0 18.490662 -14.989624 33.480316 -33.480286 33.480316l0 0c-18.490662 0 -33.480347 -14.989655 -33.480347 -33.480316z" fill-rule="evenodd"/><path stroke="#595959" stroke-width="1.0" stroke-linejoin="round" stroke-linecap="butt" d="m525.2598 124.27559l0 0c0 -18.49067 14.989685 -33.480316 33.480347 -33.480316l0 0c8.879517 0 17.395386 3.527382 23.674133 9.80616c6.2788086 6.278778 9.806152 14.794624 9.806152 23.674156l0 0c0 18.490662 -14.989624 33.480316 -33.480286 33.480316l0 0c-18.490662 0 -33.480347 -14.989655 -33.480347 -33.480316z" fill-rule="evenodd"/><path fill="#000000" d="m562.94293 129.61746l0 1.578125l-8.828125 0q-0.015625 -0.59375 0.1875 -1.140625q0.34375 -0.90625 1.078125 -1.78125q0.75 -0.875 2.15625 -2.015625q2.171875 -1.78125 2.9375 -2.828125q0.765625 -1.046875 0.765625 -1.96875q0 -0.984375 -0.703125 -1.640625q-0.6875 -0.671875 -1.8125 -0.671875q-1.1875 0 -1.90625 0.71875q-0.703125 0.703125 -0.703125 1.953125l-1.6875 -0.171875q0.171875 -1.890625 1.296875 -2.875q1.140625 -0.984375 3.03125 -0.984375q1.921875 0 3.046875 1.0625q1.125 1.0625 1.125 2.640625q0 0.796875 -0.328125 1.578125q-0.328125 0.78125 -1.09375 1.640625q-0.75 0.84375 -2.53125 2.34375q-1.46875 1.234375 -1.890625 1.6875q-0.421875 0.4375 -0.6875 0.875l6.546875 0z" fill-rule="nonzero"/><path fill="#000000" fill-opacity="0.0" d="m263.85303 124.27559c65.351715 0 98.026245 0.01574707 130.70343 0.03149414c32.677155 0.0157547 65.35693 0.03150177 130.71387 0.03150177" fill-rule="evenodd"/><path stroke="#595959" stroke-width="1.0" stroke-linejoin="round" stroke-linecap="butt" d="m263.85303 124.27559c65.351715 0 98.026245 0.01574707 130.70343 0.03149414c32.677155 0.0157547 65.35693 0.03150177 130.71387 0.03150177" fill-rule="evenodd"/><path fill="#eeeeee" d="m525.2598 365.6929l0 0c0 -18.490662 14.989685 -33.480316 33.480347 -33.480316l0 0c8.879517 0 17.395386 3.5274048 23.674133 9.806183c6.2788086 6.278778 9.806152 14.794617 9.806152 23.674133l0 0c0 18.490692 -14.989624 33.480316 -33.480286 33.480316l0 0c-18.490662 0 -33.480347 -14.989624 -33.480347 -33.480316z" fill-rule="evenodd"/><path stroke="#595959" stroke-width="1.0" stroke-linejoin="round" stroke-linecap="butt" d="m525.2598 365.6929l0 0c0 -18.490662 14.989685 -33.480316 33.480347 -33.480316l0 0c8.879517 0 17.395386 3.5274048 23.674133 9.806183c6.2788086 6.278778 9.806152 14.794617 9.806152 23.674133l0 0c0 18.490692 -14.989624 33.480316 -33.480286 33.480316l0 0c-18.490662 0 -33.480347 -14.989624 -33.480347 -33.480316z" fill-rule="evenodd"/><path fill="#000000" d="m559.58356 372.6129l0 -3.203125l-5.796875 0l0 -1.5l6.09375 -8.65625l1.34375 0l0 8.65625l1.796875 0l0 1.5l-1.796875 0l0 3.203125l-1.640625 0zm0 -4.703125l0 -6.015625l-4.1875 6.015625l4.1875 0z" fill-rule="nonzero"/><path fill="#000000" fill-opacity="0.0" d="m230.3727 157.7559c0 43.614166 0.01576233 65.421265 0.0315094 87.22835c0.01574707 21.807098 0.03149414 43.614166 0.03149414 87.22833" fill-rule="evenodd"/><path stroke="#595959" stroke-width="1.0" stroke-linejoin="round" stroke-linecap="butt" d="m230.3727 157.7559c0 43.614166 0.01576233 65.421265 0.0315094 87.22835c0.01574707 21.807098 0.03149414 43.614166 0.03149414 87.22833" fill-rule="evenodd"/><path fill="#eeeeee" d="m196.8924 365.6929l0 0c0 -18.490662 14.989639 -33.480316 33.4803 -33.480316l0 0c8.879532 0 17.395386 3.5274048 23.674164 9.806183c6.2787933 6.278778 9.806168 14.794617 9.806168 23.674133l0 0c0 18.490692 -14.989655 33.480316 -33.48033 33.480316l0 0c-18.490662 0 -33.4803 -14.989624 -33.4803 -33.480316z" fill-rule="evenodd"/><path stroke="#595959" stroke-width="1.0" stroke-linejoin="round" stroke-linecap="butt" d="m196.8924 365.6929l0 0c0 -18.490662 14.989639 -33.480316 33.4803 -33.480316l0 0c8.879532 0 17.395386 3.5274048 23.674164 9.806183c6.2787933 6.278778 9.806168 14.794617 9.806168 23.674133l0 0c0 18.490692 -14.989655 33.480316 -33.48033 33.480316l0 0c-18.490662 0 -33.4803 -14.989624 -33.4803 -33.480316z" fill-rule="evenodd"/><path fill="#000000" d="m225.9661 369.08167l1.640625 -0.21875q0.28125 1.40625 0.953125 2.015625q0.6875 0.609375 1.65625 0.609375q1.15625 0 1.953125 -0.796875q0.796875 -0.796875 0.796875 -1.984375q0 -1.125 -0.734375 -1.859375q-0.734375 -0.734375 -1.875 -0.734375q-0.46875 0 -1.15625 0.171875l0.1875 -1.4375q0.15625 0.015625 0.265625 0.015625q1.046875 0 1.875 -0.546875q0.84375 -0.546875 0.84375 -1.671875q0 -0.90625 -0.609375 -1.5q-0.609375 -0.59375 -1.578125 -0.59375q-0.953125 0 -1.59375 0.609375q-0.640625 0.59375 -0.8125 1.796875l-1.640625 -0.296875q0.296875 -1.640625 1.359375 -2.546875q1.0625 -0.90625 2.65625 -0.90625q1.09375 0 2.0 0.46875q0.921875 0.46875 1.40625 1.28125q0.5 0.8125 0.5 1.71875q0 0.859375 -0.46875 1.578125q-0.46875 0.703125 -1.375 1.125q1.1875 0.28125 1.84375 1.140625q0.65625 0.859375 0.65625 2.15625q0 1.734375 -1.28125 2.953125q-1.265625 1.21875 -3.21875 1.21875q-1.765625 0 -2.921875 -1.046875q-1.15625 -1.046875 -1.328125 -2.71875z" fill-rule="nonzero"/><path fill="#000000" fill-opacity="0.0" d="m263.85303 365.6929c65.351715 0 98.026245 0.01574707 130.70343 0.03149414c32.677155 0.01574707 65.35693 0.03152466 130.71387 0.03152466" fill-rule="evenodd"/><path stroke="#595959" stroke-width="1.0" stroke-linejoin="round" stroke-linecap="butt" d="m263.85303 365.6929c65.351715 0 98.026245 0.01574707 130.70343 0.03149414c32.677155 0.01574707 65.35693 0.03152466 130.71387 0.03152466" fill-rule="evenodd"/><path fill="#000000" fill-opacity="0.0" d="m558.7402 332.2126c0 -43.614166 0.01574707 -65.421234 0.03149414 -87.22833c0.01574707 -21.807083 0.03149414 -43.61418 0.03149414 -87.22835" fill-rule="evenodd"/><path stroke="#595959" stroke-width="1.0" stroke-linejoin="round" stroke-linecap="butt" d="m558.7402 332.2126c0 -43.614166 0.01574707 -65.421234 0.03149414 -87.22833c0.01574707 -21.807083 0.03149414 -43.61418 0.03149414 -87.22835" fill-rule="evenodd"/><path fill="#eeeeee" d="m698.4304 365.7244l0 0c0 -18.490662 14.989685 -33.480316 33.480347 -33.480316l0 0c8.879517 0 17.395386 3.5274048 23.674133 9.806183c6.2788086 6.278778 9.806152 14.794617 9.806152 23.674133l0 0c0 18.490692 -14.989624 33.480316 -33.480286 33.480316l0 0c-18.490662 0 -33.480347 -14.989624 -33.480347 -33.480316z" fill-rule="evenodd"/><path stroke="#595959" stroke-width="1.0" stroke-linejoin="round" stroke-linecap="butt" d="m698.4304 365.7244l0 0c0 -18.490662 14.989685 -33.480316 33.480347 -33.480316l0 0c8.879517 0 17.395386 3.5274048 23.674133 9.806183c6.2788086 6.278778 9.806152 14.794617 9.806152 23.674133l0 0c0 18.490692 -14.989624 33.480316 -33.480286 33.480316l0 0c-18.490662 0 -33.480347 -14.989624 -33.480347 -33.480316z" fill-rule="evenodd"/><path fill="#000000" d="m727.50415 369.1444l1.71875 -0.140625q0.1875 1.25 0.875 1.890625q0.703125 0.625 1.6875 0.625q1.1875 0 2.0 -0.890625q0.828125 -0.890625 0.828125 -2.359375q0 -1.40625 -0.796875 -2.21875q-0.78125 -0.8125 -2.0625 -0.8125q-0.78125 0 -1.421875 0.359375q-0.640625 0.359375 -1.0 0.9375l-1.546875 -0.203125l1.296875 -6.859375l6.640625 0l0 1.5625l-5.328125 0l-0.71875 3.59375q1.203125 -0.84375 2.515625 -0.84375q1.75 0 2.953125 1.21875q1.203125 1.203125 1.203125 3.109375q0 1.8125 -1.046875 3.140625q-1.296875 1.625 -3.515625 1.625q-1.8125 0 -2.96875 -1.015625q-1.15625 -1.03125 -1.3125 -2.71875z" fill-rule="nonzero"/><path fill="#000000" fill-opacity="0.0" d="m582.4143 147.94975l149.51184 184.28346" fill-rule="evenodd"/><path stroke="#595959" stroke-width="1.0" stroke-linejoin="round" stroke-linecap="butt" d="m582.4143 147.94975l149.51184 184.28346" fill-rule="evenodd"/><path fill="#eeeeee" d="m63.149605 365.6929l0 0c0 -18.490662 14.989647 -33.480316 33.480316 -33.480316l0 0c8.879532 0 17.395378 3.5274048 23.674156 9.806183c6.278778 6.278778 9.806152 14.794617 9.806152 23.674133l0 0c0 18.490692 -14.989639 33.480316 -33.48031 33.480316l0 0c-18.49067 0 -33.480316 -14.989624 -33.480316 -33.480316z" fill-rule="evenodd"/><path stroke="#595959" stroke-width="1.0" stroke-linejoin="round" stroke-linecap="butt" d="m63.149605 365.6929l0 0c0 -18.490662 14.989647 -33.480316 33.480316 -33.480316l0 0c8.879532 0 17.395378 3.5274048 23.674156 9.806183c6.278778 6.278778 9.806152 14.794617 9.806152 23.674133l0 0c0 18.490692 -14.989639 33.480316 -33.48031 33.480316l0 0c-18.49067 0 -33.480316 -14.989624 -33.480316 -33.480316z" fill-rule="evenodd"/><path fill="#000000" d="m100.72331 362.5348l-1.625 0.125q-0.21875 -0.96875 -0.625 -1.40625q-0.65625 -0.703125 -1.640625 -0.703125q-0.78125 0 -1.375 0.4375q-0.765625 0.5625 -1.21875 1.65625q-0.453125 1.078125 -0.46875 3.078125q0.59375 -0.890625 1.453125 -1.328125q0.859375 -0.4375 1.796875 -0.4375q1.640625 0 2.78125 1.203125q1.15625 1.203125 1.15625 3.109375q0 1.265625 -0.546875 2.34375q-0.53125 1.078125 -1.484375 1.65625q-0.9375 0.578125 -2.140625 0.578125q-2.0625 0 -3.359375 -1.5q-1.28125 -1.515625 -1.28125 -4.984375q0 -3.875 1.421875 -5.625q1.25 -1.53125 3.375 -1.53125q1.5625 0 2.5625 0.890625q1.015625 0.875 1.21875 2.4375zm-6.6875 5.75q0 0.84375 0.359375 1.625q0.359375 0.765625 1.0 1.171875q0.640625 0.40625 1.359375 0.40625q1.03125 0 1.78125 -0.828125q0.75 -0.84375 0.75 -2.28125q0 -1.390625 -0.734375 -2.1875q-0.734375 -0.796875 -1.859375 -0.796875q-1.109375 0 -1.890625 0.796875q-0.765625 0.796875 -0.765625 2.09375z" fill-rule="nonzero"/><path fill="#eeeeee" d="m63.149605 124.30708l0 0c0 -18.490662 14.989647 -33.48031 33.480316 -33.48031l0 0c8.879532 0 17.395378 3.5273743 23.674156 9.806152c6.278778 6.278778 9.806152 14.794624 9.806152 23.674156l0 0c0 18.490677 -14.989639 33.480316 -33.48031 33.480316l0 0c-18.49067 0 -33.480316 -14.989639 -33.480316 -33.480316z" fill-rule="evenodd"/><path stroke="#595959" stroke-width="1.0" stroke-linejoin="round" stroke-linecap="butt" d="m63.149605 124.30708l0 0c0 -18.490662 14.989647 -33.48031 33.480316 -33.48031l0 0c8.879532 0 17.395378 3.5273743 23.674156 9.806152c6.278778 6.278778 9.806152 14.794624 9.806152 23.674156l0 0c0 18.490677 -14.989639 33.480316 -33.48031 33.480316l0 0c-18.49067 0 -33.480316 -14.989639 -33.480316 -33.480316z" fill-rule="evenodd"/><path fill="#000000" d="m92.33269 119.617714l0 -1.578125l8.640625 0l0 1.28125q-1.28125 1.359375 -2.53125 3.609375q-1.25 2.25 -1.9375 4.625q-0.484375 1.6718674 -0.625 3.6718674l-1.6875 0q0.03125 -1.578125 0.625 -3.8124924q0.59375 -2.234375 1.6875 -4.296875q1.109375 -2.078125 2.359375 -3.5l-6.53125 0z" fill-rule="nonzero"/><path fill="#000000" fill-opacity="0.0" d="m96.62992 157.7874l0 174.42519" fill-rule="evenodd"/><path stroke="#595959" stroke-width="1.0" stroke-linejoin="round" stroke-linecap="butt" d="m96.62992 157.7874l0 174.42519" fill-rule="evenodd"/><path fill="#000000" fill-opacity="0.0" d="m42.48819 91.66178l0 0c0 -9.9674225 8.080189 -18.047607 18.047604 -18.047607l72.18825 0l0 0c4.7865295 0 9.376999 1.9014359 12.761581 5.2860184c3.3845825 3.3845825 5.286026 7.975067 5.286026 12.761589l0 306.64496c0 9.967407 -8.080185 18.047607 -18.047607 18.047607l-72.18825 0c-9.967415 0 -18.047604 -8.0802 -18.047604 -18.047607z" fill-rule="evenodd"/><path stroke="#6aa84f" stroke-width="1.0" stroke-linejoin="round" stroke-linecap="butt" stroke-dasharray="4.0,3.0" d="m42.48819 91.66178l0 0c0 -9.9674225 8.080189 -18.047607 18.047604 -18.047607l72.18825 0l0 0c4.7865295 0 9.376999 1.9014359 12.761581 5.2860184c3.3845825 3.3845825 5.286026 7.975067 5.286026 12.761589l0 306.64496c0 9.967407 -8.080185 18.047607 -18.047607 18.047607l-72.18825 0c-9.967415 0 -18.047604 -8.0802 -18.047604 -18.047607z" fill-rule="evenodd"/><path fill="#000000" fill-opacity="0.0" d="m181.27559 130.75443l0 0c0 -31.548996 25.575516 -57.124504 57.124496 -57.124504l492.6801 0c15.150391 0 29.680237 6.0184555 40.393127 16.731377c10.712952 10.712929 16.731384 25.242767 16.731384 40.393127l0 228.49115c0 31.54898 -25.5755 57.12451 -57.12451 57.12451l-492.6801 0c-31.54898 0 -57.124496 -25.575531 -57.124496 -57.12451z" fill-rule="evenodd"/><path stroke="#6aa84f" stroke-width="1.0" stroke-linejoin="round" stroke-linecap="butt" stroke-dasharray="4.0,3.0" d="m181.27559 130.75443l0 0c0 -31.548996 25.575516 -57.124504 57.124496 -57.124504l492.6801 0c15.150391 0 29.680237 6.0184555 40.393127 16.731377c10.712952 10.712929 16.731384 25.242767 16.731384 40.393127l0 228.49115c0 31.54898 -25.5755 57.12451 -57.12451 57.12451l-492.6801 0c-31.54898 0 -57.124496 -25.575531 -57.124496 -57.12451z" fill-rule="evenodd"/></g></svg>