<svg version="1.1" viewBox="0.0 0.0 844.4094488188977 486.8582677165354" fill="none" stroke="none" stroke-linecap="square" stroke-miterlimit="10" xmlns:xlink="http://www.w3.org/1999/xlink" xmlns="http://www.w3.org/2000/svg"><clipPath id="p.0"><path d="m0 0l844.4094 0l0 486.85828l-844.4094 0l0 -486.85828z" clip-rule="nonzero"/></clipPath><g clip-path="url(#p.0)"><path fill="#000000" fill-opacity="0.0" d="m0 0l844.4094 0l0 486.85828l-844.4094 0z" fill-rule="evenodd"/><path fill="#eeeeee" d="m142.14174 108.144356l0 0c0 -18.49067 14.989639 -33.480316 33.4803 -33.480316l0 0c8.879532 0 17.395386 3.527382 23.674164 9.80616c6.278778 6.278778 9.806152 14.794624 9.806152 23.674156l0 0c0 18.49067 -14.989639 33.48031 -33.480316 33.48031l0 0c-18.490662 0 -33.4803 -14.989639 -33.4803 -33.48031z" fill-rule="evenodd"/><path stroke="#595959" stroke-width="1.0" stroke-linejoin="round" stroke-linecap="butt" d="m142.14174 108.144356l0 0c0 -18.49067 14.989639 -33.480316 33.4803 -33.480316l0 0c8.879532 0 17.395386 3.527382 23.674164 9.80616c6.278778 6.278778 9.806152 14.794624 9.806152 23.674156l0 0c0 18.49067 -14.989639 33.48031 -33.480316 33.48031l0 0c-18.490662 0 -33.4803 -14.989639 -33.4803 -33.48031z" fill-rule="evenodd"/><path fill="#000000" d="m177.38731 115.064354l-1.640625 0l0 -10.453125q-0.59375 0.5625 -1.5625 1.140625q-0.953125 0.5625 -1.71875 0.84375l0 -1.59375q1.375 -0.640625 2.40625 -1.5625q1.03125 -0.921875 1.453125 -1.78125l1.0625 0l0 13.40625z" fill-rule="nonzero"/><path fill="#eeeeee" d="m470.5092 108.144356l0 0c0 -18.49067 14.989655 -33.480316 33.480316 -33.480316l0 0c8.879517 0 17.395386 3.527382 23.674133 9.80616c6.2788086 6.278778 9.806152 14.794624 9.806152 23.674156l0 0c0 18.49067 -14.989624 33.48031 -33.480286 33.48031l0 0c-18.490662 0 -33.480316 -14.989639 -33.480316 -33.48031z" fill-rule="evenodd"/><path stroke="#595959" stroke-width="1.0" stroke-linejoin="round" stroke-linecap="butt" d="m470.5092 108.144356l0 0c0 -18.49067 14.989655 -33.480316 33.480316 -33.480316l0 0c8.879517 0 17.395386 3.527382 23.674133 9.80616c6.2788086 6.278778 9.806152 14.794624 9.806152 23.674156l0 0c0 18.49067 -14.989624 33.48031 -33.480286 33.48031l0 0c-18.490662 0 -33.480316 -14.989639 -33.480316 -33.48031z" fill-rule="evenodd"/><path fill="#000000" d="m508.19226 113.48623l0 1.578125l-8.828125 0q-0.015625 -0.59375 0.1875 -1.140625q0.34375 -0.90625 1.078125 -1.78125q0.75 -0.875 2.15625 -2.015625q2.171875 -1.78125 2.9375 -2.828125q0.765625 -1.046875 0.765625 -1.96875q0 -0.984375 -0.703125 -1.640625q-0.6875 -0.671875 -1.8125 -0.671875q-1.1875 0 -1.90625 0.71875q-0.703125 0.703125 -0.703125 1.953125l-1.6875 -0.171875q0.171875 -1.890625 1.296875 -2.875q1.140625 -0.984375 3.03125 -0.984375q1.921875 0 3.046875 1.0625q1.125 1.0625 1.125 2.640625q0 0.796875 -0.328125 1.578125q-0.328125 0.78125 -1.09375 1.640625q-0.75 0.84375 -2.53125 2.34375q-1.46875 1.234375 -1.890625 1.6875q-0.421875 0.4375 -0.6875 0.875l6.546875 0z" fill-rule="nonzero"/><path fill="#000000" fill-opacity="0.0" d="m209.10236 108.144356c65.351715 0 98.026276 0.01574707 130.70343 0.03149414c32.677185 0.0157547 65.356964 0.03150177 130.7139 0.03150177" fill-rule="evenodd"/><path stroke="#595959" stroke-width="1.0" stroke-linejoin="round" stroke-linecap="butt" d="m209.10236 108.144356c65.351715 0 98.026276 0.01574707 130.70343 0.03149414c32.677185 0.0157547 65.356964 0.03150177 130.7139 0.03150177" fill-rule="evenodd"/><path fill="#eeeeee" d="m470.5092 349.56168l0 0c0 -18.490662 14.989655 -33.480316 33.480316 -33.480316l0 0c8.879517 0 17.395386 3.5273743 23.674133 9.806152c6.2788086 6.278778 9.806152 14.794647 9.806152 23.674164l0 0c0 18.490662 -14.989624 33.480316 -33.480286 33.480316l0 0c-18.490662 0 -33.480316 -14.989655 -33.480316 -33.480316z" fill-rule="evenodd"/><path stroke="#595959" stroke-width="1.0" stroke-linejoin="round" stroke-linecap="butt" d="m470.5092 349.56168l0 0c0 -18.490662 14.989655 -33.480316 33.480316 -33.480316l0 0c8.879517 0 17.395386 3.5273743 23.674133 9.806152c6.2788086 6.278778 9.806152 14.794647 9.806152 23.674164l0 0c0 18.490662 -14.989624 33.480316 -33.480286 33.480316l0 0c-18.490662 0 -33.480316 -14.989655 -33.480316 -33.480316z" fill-rule="evenodd"/><path fill="#000000" d="m504.8329 356.4817l0 -3.203125l-5.796875 0l0 -1.5l6.09375 -8.65625l1.34375 0l0 8.65625l1.796875 0l0 1.5l-1.796875 0l0 3.203125l-1.640625 0zm0 -4.703125l0 -6.015625l-4.1875 6.015625l4.1875 0z" fill-rule="nonzero"/><path fill="#000000" fill-opacity="0.0" d="m175.62204 141.62466c0 43.61418 0.01576233 65.421265 0.0315094 87.22835c0.01574707 21.807098 0.03149414 43.61418 0.03149414 87.22835" fill-rule="evenodd"/><path stroke="#e69138" stroke-width="2.0" stroke-linejoin="round" stroke-linecap="butt" d="m175.62317 153.62466l0.0015869141 16.96254c0.0017242432 8.518402 0.004180908 16.014587 0.0071411133 22.8293c0.0059051514 13.629425 0.0137786865 24.532974 0.021652222 35.43651c0.01574707 21.807098 0.03149414 43.61418 0.03149414 87.22835" fill-rule="evenodd"/><path fill="#e69138" stroke="#e69138" stroke-width="2.0" stroke-linecap="butt" d="m178.92664 153.62436l-3.3043213 -9.075882l-3.3026123 9.076508z" fill-rule="evenodd"/><path fill="#eeeeee" d="m142.14174 349.56168l0 0c0 -18.490662 14.989639 -33.480316 33.4803 -33.480316l0 0c8.879532 0 17.395386 3.5273743 23.674164 9.806152c6.278778 6.278778 9.806152 14.794647 9.806152 23.674164l0 0c0 18.490662 -14.989639 33.480316 -33.480316 33.480316l0 0c-18.490662 0 -33.4803 -14.989655 -33.4803 -33.480316z" fill-rule="evenodd"/><path stroke="#595959" stroke-width="1.0" stroke-linejoin="round" stroke-linecap="butt" d="m142.14174 349.56168l0 0c0 -18.490662 14.989639 -33.480316 33.4803 -33.480316l0 0c8.879532 0 17.395386 3.5273743 23.674164 9.806152c6.278778 6.278778 9.806152 14.794647 9.806152 23.674164l0 0c0 18.490662 -14.989639 33.480316 -33.480316 33.480316l0 0c-18.490662 0 -33.4803 -14.989655 -33.4803 -33.480316z" fill-rule="evenodd"/><path fill="#000000" d="m171.21544 352.95044l1.640625 -0.21875q0.28125 1.40625 0.953125 2.015625q0.6875 0.609375 1.65625 0.609375q1.15625 0 1.953125 -0.796875q0.796875 -0.796875 0.796875 -1.984375q0 -1.125 -0.734375 -1.859375q-0.734375 -0.734375 -1.875 -0.734375q-0.46875 0 -1.15625 0.171875l0.1875 -1.4375q0.15625 0.015625 0.265625 0.015625q1.046875 0 1.875 -0.546875q0.84375 -0.546875 0.84375 -1.671875q0 -0.90625 -0.609375 -1.5q-0.609375 -0.59375 -1.578125 -0.59375q-0.953125 0 -1.59375 0.609375q-0.640625 0.59375 -0.8125 1.796875l-1.640625 -0.296875q0.296875 -1.640625 1.359375 -2.546875q1.0625 -0.90625 2.65625 -0.90625q1.09375 0 2.0 0.46875q0.921875 0.46875 1.40625 1.28125q0.5 0.8125 0.5 1.71875q0 0.859375 -0.46875 1.578125q-0.46875 0.703125 -1.375 1.125q1.1875 0.28125 1.84375 1.140625q0.65625 0.859375 0.65625 2.15625q0 1.734375 -1.28125 2.953125q-1.265625 1.21875 -3.21875 1.21875q-1.765625 0 -2.921875 -1.046875q-1.15625 -1.046875 -1.328125 -2.71875z" fill-rule="nonzero"/><path fill="#000000" fill-opacity="0.0" d="m209.10236 349.56168c65.351715 0 98.026276 0.01574707 130.70343 0.03149414c32.677185 0.01574707 65.356964 0.03149414 130.7139 0.03149414" fill-rule="evenodd"/><path stroke="#e69138" stroke-width="2.0" stroke-linejoin="round" stroke-linecap="butt" d="m209.10236 349.56168c65.351746 0 98.026276 0.01574707 130.70343 0.03149414c16.338623 0.007873535 32.677856 0.01574707 53.10202 0.02166748c10.212097 0.0029296875 21.445465 0.0054016113 34.2106 0.0071411133l31.401276 0.001953125" fill-rule="evenodd"/><path fill="#e69138" stroke="#e69138" stroke-width="2.0" stroke-linecap="butt" d="m458.51947 352.9274l9.076416 -3.3029175l-9.075989 -3.304016z" fill-rule="evenodd"/><path fill="#000000" fill-opacity="0.0" d="m503.9895 316.08136c0 -43.614166 0.01574707 -65.42125 0.03149414 -87.22835c0.01574707 -21.807083 0.03149414 -43.614166 0.03149414 -87.22835" fill-rule="evenodd"/><path stroke="#e69138" stroke-width="2.0" stroke-linejoin="round" stroke-linecap="butt" d="m503.9895 316.08136c0 -43.614166 0.01574707 -65.42125 0.03149414 -87.22835c0.007873535 -10.903534 0.01574707 -21.807083 0.02166748 -35.43651c0.0029296875 -6.8147125 0.0054016113 -14.310898 0.0071105957 -22.8293l0.0016174316 -16.96254" fill-rule="evenodd"/><path fill="#e69138" stroke="#e69138" stroke-width="2.0" stroke-linecap="butt" d="m507.35483 153.62498l-3.3026123 -9.076508l-3.3043213 9.075882z" fill-rule="evenodd"/><path fill="#eeeeee" d="m643.6798 349.59317l0 0c0 -18.490662 14.989624 -33.480316 33.480286 -33.480316l0 0c8.879517 0 17.395386 3.5273743 23.674194 9.806152c6.2787476 6.278778 9.806152 14.794647 9.806152 23.674164l0 0c0 18.490662 -14.989685 33.480316 -33.480347 33.480316l0 0c-18.490662 0 -33.480286 -14.989655 -33.480286 -33.480316z" fill-rule="evenodd"/><path stroke="#595959" stroke-width="1.0" stroke-linejoin="round" stroke-linecap="butt" d="m643.6798 349.59317l0 0c0 -18.490662 14.989624 -33.480316 33.480286 -33.480316l0 0c8.879517 0 17.395386 3.5273743 23.674194 9.806152c6.2787476 6.278778 9.806152 14.794647 9.806152 23.674164l0 0c0 18.490662 -14.989685 33.480316 -33.480347 33.480316l0 0c-18.490662 0 -33.480286 -14.989655 -33.480286 -33.480316z" fill-rule="evenodd"/><path fill="#000000" d="m672.7535 353.01318l1.71875 -0.140625q0.1875 1.25 0.875 1.890625q0.703125 0.625 1.6875 0.625q1.1875 0 2.0 -0.890625q0.828125 -0.890625 0.828125 -2.359375q0 -1.40625 -0.796875 -2.21875q-0.78125 -0.8125 -2.0625 -0.8125q-0.78125 0 -1.421875 0.359375q-0.640625 0.359375 -1.0 0.9375l-1.546875 -0.203125l1.296875 -6.859375l6.640625 0l0 1.5625l-5.328125 0l-0.71875 3.59375q1.203125 -0.84375 2.515625 -0.84375q1.75 0 2.953125 1.21875q1.203125 1.203125 1.203125 3.109375q0 1.8125 -1.046875 3.140625q-1.296875 1.625 -3.515625 1.625q-1.8125 0 -2.96875 -1.015625q-1.15625 -1.03125 -1.3125 -2.71875z" fill-rule="nonzero"/><path fill="#000000" fill-opacity="0.0" d="m527.66364 131.81851l149.51184 184.28348" fill-rule="evenodd"/><path stroke="#e69138" stroke-width="2.0" stroke-linejoin="round" stroke-linecap="butt" d="m527.6637 131.81851l141.95135 174.96469" fill-rule="evenodd"/><path fill="#e69138" stroke="#e69138" stroke-width="2.0" stroke-linecap="butt" d="m667.0497 308.8645l8.283691 4.9669495l-3.1530151 -9.129547z" fill-rule="evenodd"/><path fill="#000000" fill-opacity="0.0" d="m313.68765 362.7139l32.031494 0l0 42.015747l-32.031494 0z" fill-rule="evenodd"/><path fill="#000000" d="m330.0314 389.6339l-2.5625 0l0 -9.640625q-1.40625 1.3125 -3.3125 1.9375l0 -2.328125q1.015625 -0.328125 2.1875 -1.234375q1.171875 -0.921875 1.609375 -2.140625l2.078125 0l0 13.40625z" fill-rule="nonzero"/><path fill="#000000" fill-opacity="0.0" d="m460.77692 213.2231l32.031494 0l0 42.015747l-32.031494 0z" fill-rule="evenodd"/><path fill="#000000" d="m479.21442 237.7681l0 2.375l-8.96875 0q0.140625 -1.34375 0.859375 -2.546875q0.734375 -1.21875 2.890625 -3.203125q1.734375 -1.625 2.125 -2.1875q0.53125 -0.796875 0.53125 -1.578125q0 -0.84375 -0.46875 -1.296875q-0.453125 -0.46875 -1.265625 -0.46875q-0.796875 0 -1.28125 0.484375q-0.46875 0.46875 -0.546875 1.59375l-2.546875 -0.25q0.234375 -2.109375 1.421875 -3.03125q1.203125 -0.921875 3.015625 -0.921875q1.96875 0 3.09375 1.0625q1.140625 1.0625 1.140625 2.65625q0 0.890625 -0.328125 1.71875q-0.3125 0.8125 -1.015625 1.703125q-0.46875 0.59375 -1.6875 1.703125q-1.203125 1.109375 -1.53125 1.484375q-0.3125 0.359375 -0.515625 0.703125l5.078125 0z" fill-rule="nonzero"/><path fill="#000000" fill-opacity="0.0" d="m604.88715 182.13387l32.031494 0l0 42.015747l-32.031494 0z" fill-rule="evenodd"/><path fill="#000000" d="m614.5903 205.50699l2.46875 -0.296875q0.125 0.953125 0.640625 1.453125q0.53125 0.5 1.265625 0.5q0.78125 0 1.328125 -0.59375q0.546875 -0.609375 0.546875 -1.640625q0 -0.953125 -0.53125 -1.515625q-0.515625 -0.578125 -1.25 -0.578125q-0.5 0 -1.1875 0.203125l0.28125 -2.09375q1.046875 0.03125 1.59375 -0.4375q0.546875 -0.484375 0.546875 -1.28125q0 -0.671875 -0.40625 -1.078125q-0.390625 -0.40625 -1.0625 -0.40625q-0.65625 0 -1.125 0.46875q-0.453125 0.453125 -0.5625 1.328125l-2.359375 -0.40625q0.25 -1.203125 0.734375 -1.921875q0.5 -0.734375 1.390625 -1.140625q0.890625 -0.421875 2.0 -0.421875q1.875 0 3.015625 1.203125q0.9375 0.984375 0.9375 2.21875q0 1.765625 -1.921875 2.8125q1.15625 0.234375 1.84375 1.09375q0.6875 0.859375 0.6875 2.0625q0 1.765625 -1.296875 3.015625q-1.28125 1.234375 -3.1875 1.234375q-1.8125 0 -3.015625 -1.046875q-1.1875 -1.046875 -1.375 -2.734375z" fill-rule="nonzero"/><path fill="#000000" fill-opacity="0.0" d="m133.76903 202.95276l32.031494 0l0 42.015747l-32.031494 0z" fill-rule="evenodd"/><path fill="#000000" d="m148.58153 229.87276l0 -2.6875l-5.46875 0l0 -2.234375l5.796875 -8.484375l2.15625 0l0 8.46875l1.65625 0l0 2.25l-1.65625 0l0 2.6875l-2.484375 0zm0 -4.9375l0 -4.5625l-3.078125 4.5625l3.078125 0z" fill-rule="nonzero"/></g></svg>