<svg version="1.1" viewBox="0.0 0.0 788.8267716535433 455.5800524934383" fill="none" stroke="none" stroke-linecap="square" stroke-miterlimit="10" xmlns:xlink="http://www.w3.org/1999/xlink" xmlns="http://www.w3.org/2000/svg"><clipPath id="p.0"><path d="m0 0l788.8268 0l0 455.58005l-788.8268 0l0 -455.58005z" clip-rule="nonzero"/></clipPath><g clip-path="url(#p.0)"><path fill="#000000" fill-opacity="0.0" d="m0 0l788.8268 0l0 455.58005l-788.8268 0z" fill-rule="evenodd"/><path fill="#eeeeee" d="m110.16404 107.06562l0 0c0 -18.49067 14.989647 -33.480316 33.480324 -33.480316l0 0c8.879532 0 17.39537 3.5273743 23.674149 9.806152c6.278778 6.278778 9.806152 14.794632 9.806152 23.674164l0 0c0 18.490662 -14.989639 33.48031 -33.4803 33.48031l0 0c-18.490677 0 -33.480324 -14.989647 -33.480324 -33.48031z" fill-rule="evenodd"/><path stroke="#595959" stroke-width="1.0" stroke-linejoin="round" stroke-linecap="butt" d="m110.16404 107.06562l0 0c0 -18.49067 14.989647 -33.480316 33.480324 -33.480316l0 0c8.879532 0 17.39537 3.5273743 23.674149 9.806152c6.278778 6.278778 9.806152 14.794632 9.806152 23.674164l0 0c0 18.490662 -14.989639 33.48031 -33.4803 33.48031l0 0c-18.490677 0 -33.480324 -14.989647 -33.480324 -33.48031z" fill-rule="evenodd"/><path fill="#000000" d="m145.40962 113.98562l-1.640625 0l0 -10.453125q-0.59375 0.5625 -1.5625 1.140625q-0.953125 0.5625 -1.71875 0.84375l0 -1.59375q1.375 -0.640625 2.40625 -1.5625q1.03125 -0.921875 1.453125 -1.78125l1.0625 0l0 13.40625z" fill-rule="nonzero"/><path fill="#eeeeee" d="m438.5315 107.06562l0 0c0 -18.49067 14.989655 -33.480316 33.480316 -33.480316l0 0c8.879547 0 17.395386 3.5273743 23.674164 9.806152c6.278778 6.278778 9.806152 14.794632 9.806152 23.674164l0 0c0 18.490662 -14.989655 33.48031 -33.480316 33.48031l0 0c-18.490662 0 -33.480316 -14.989647 -33.480316 -33.48031z" fill-rule="evenodd"/><path stroke="#595959" stroke-width="1.0" stroke-linejoin="round" stroke-linecap="butt" d="m438.5315 107.06562l0 0c0 -18.49067 14.989655 -33.480316 33.480316 -33.480316l0 0c8.879547 0 17.395386 3.5273743 23.674164 9.806152c6.278778 6.278778 9.806152 14.794632 9.806152 23.674164l0 0c0 18.490662 -14.989655 33.48031 -33.480316 33.48031l0 0c-18.490662 0 -33.480316 -14.989647 -33.480316 -33.48031z" fill-rule="evenodd"/><path fill="#000000" d="m476.21457 112.40749l0 1.578125l-8.828125 0q-0.015625 -0.59375 0.1875 -1.140625q0.34375 -0.90625 1.078125 -1.78125q0.75 -0.875 2.15625 -2.015625q2.171875 -1.78125 2.9375 -2.828125q0.765625 -1.046875 0.765625 -1.96875q0 -0.984375 -0.703125 -1.640625q-0.6875 -0.671875 -1.8125 -0.671875q-1.1875 0 -1.90625 0.71875q-0.703125 0.703125 -0.703125 1.953125l-1.6875 -0.171875q0.171875 -1.890625 1.296875 -2.875q1.140625 -0.984375 3.03125 -0.984375q1.921875 0 3.046875 1.0625q1.125 1.0625 1.125 2.640625q0 0.796875 -0.328125 1.578125q-0.328125 0.78125 -1.09375 1.640625q-0.75 0.84375 -2.53125 2.34375q-1.46875 1.234375 -1.890625 1.6875q-0.421875 0.4375 -0.6875 0.875l6.546875 0z" fill-rule="nonzero"/><path fill="#000000" fill-opacity="0.0" d="m177.12466 107.06562c65.35173 0 98.026276 0.01574707 130.70343 0.03149414c32.677185 0.01574707 65.356964 0.03149414 130.7139 0.03149414" fill-rule="evenodd"/><path stroke="#595959" stroke-width="1.0" stroke-linejoin="round" stroke-linecap="butt" d="m177.12466 107.06562c65.35173 0 98.026276 0.01574707 130.70343 0.03149414c32.677185 0.01574707 65.356964 0.03149414 130.7139 0.03149414" fill-rule="evenodd"/><path fill="#eeeeee" d="m438.5315 348.48294l0 0c0 -18.490662 14.989655 -33.480316 33.480316 -33.480316l0 0c8.879547 0 17.395386 3.5273743 23.674164 9.806152c6.278778 6.278778 9.806152 14.794617 9.806152 23.674164l0 0c0 18.490662 -14.989655 33.480316 -33.480316 33.480316l0 0c-18.490662 0 -33.480316 -14.989655 -33.480316 -33.480316z" fill-rule="evenodd"/><path stroke="#595959" stroke-width="1.0" stroke-linejoin="round" stroke-linecap="butt" d="m438.5315 348.48294l0 0c0 -18.490662 14.989655 -33.480316 33.480316 -33.480316l0 0c8.879547 0 17.395386 3.5273743 23.674164 9.806152c6.278778 6.278778 9.806152 14.794617 9.806152 23.674164l0 0c0 18.490662 -14.989655 33.480316 -33.480316 33.480316l0 0c-18.490662 0 -33.480316 -14.989655 -33.480316 -33.480316z" fill-rule="evenodd"/><path fill="#000000" d="m472.8552 355.40292l0 -3.203125l-5.796875 0l0 -1.5l6.09375 -8.65625l1.34375 0l0 8.65625l1.796875 0l0 1.5l-1.796875 0l0 3.203125l-1.640625 0zm0 -4.703125l0 -6.015625l-4.1875 6.015625l4.1875 0z" fill-rule="nonzero"/><path fill="#000000" fill-opacity="0.0" d="m143.64436 140.54593c0 43.61418 0.01574707 65.421265 0.03149414 87.22835c0.01574707 21.807083 0.03149414 43.61418 0.03149414 87.22835" fill-rule="evenodd"/><path stroke="#595959" stroke-width="1.0" stroke-linejoin="round" stroke-linecap="butt" d="m143.64436 140.54593c0 43.61418 0.01574707 65.421265 0.03149414 87.22835c0.01574707 21.807083 0.03149414 43.61418 0.03149414 87.22835" fill-rule="evenodd"/><path fill="#eeeeee" d="m110.16404 348.48294l0 0c0 -18.490662 14.989647 -33.480316 33.480324 -33.480316l0 0c8.879532 0 17.39537 3.5273743 23.674149 9.806152c6.278778 6.278778 9.806152 14.794617 9.806152 23.674164l0 0c0 18.490662 -14.989639 33.480316 -33.4803 33.480316l0 0c-18.490677 0 -33.480324 -14.989655 -33.480324 -33.480316z" fill-rule="evenodd"/><path stroke="#595959" stroke-width="1.0" stroke-linejoin="round" stroke-linecap="butt" d="m110.16404 348.48294l0 0c0 -18.490662 14.989647 -33.480316 33.480324 -33.480316l0 0c8.879532 0 17.39537 3.5273743 23.674149 9.806152c6.278778 6.278778 9.806152 14.794617 9.806152 23.674164l0 0c0 18.490662 -14.989639 33.480316 -33.4803 33.480316l0 0c-18.490677 0 -33.480324 -14.989655 -33.480324 -33.480316z" fill-rule="evenodd"/><path fill="#000000" d="m139.23775 351.87167l1.640625 -0.21875q0.28125 1.40625 0.953125 2.015625q0.6875 0.609375 1.65625 0.609375q1.15625 0 1.953125 -0.796875q0.796875 -0.796875 0.796875 -1.984375q0 -1.125 -0.734375 -1.859375q-0.734375 -0.734375 -1.875 -0.734375q-0.46875 0 -1.15625 0.171875l0.1875 -1.4375q0.15625 0.015625 0.265625 0.015625q1.046875 0 1.875 -0.546875q0.84375 -0.546875 0.84375 -1.671875q0 -0.90625 -0.609375 -1.5q-0.609375 -0.59375 -1.578125 -0.59375q-0.953125 0 -1.59375 0.609375q-0.640625 0.59375 -0.8125 1.796875l-1.640625 -0.296875q0.296875 -1.640625 1.359375 -2.546875q1.0625 -0.90625 2.65625 -0.90625q1.09375 0 2.0 0.46875q0.921875 0.46875 1.40625 1.28125q0.5 0.8125 0.5 1.71875q0 0.859375 -0.46875 1.578125q-0.46875 0.703125 -1.375 1.125q1.1875 0.28125 1.84375 1.140625q0.65625 0.859375 0.65625 2.15625q0 1.734375 -1.28125 2.953125q-1.265625 1.21875 -3.21875 1.21875q-1.765625 0 -2.921875 -1.046875q-1.15625 -1.046875 -1.328125 -2.71875z" fill-rule="nonzero"/><path fill="#000000" fill-opacity="0.0" d="m177.12466 348.48294c65.35173 0 98.026276 0.01574707 130.70343 0.03149414c32.677185 0.01574707 65.356964 0.03149414 130.7139 0.03149414" fill-rule="evenodd"/><path stroke="#595959" stroke-width="1.0" stroke-linejoin="round" stroke-linecap="butt" d="m177.12466 348.48294c65.35173 0 98.026276 0.01574707 130.70343 0.03149414c32.677185 0.01574707 65.356964 0.03149414 130.7139 0.03149414" fill-rule="evenodd"/><path fill="#000000" fill-opacity="0.0" d="m472.0118 315.00262c0 -43.614166 0.01574707 -65.421265 0.03149414 -87.22835c0.01574707 -21.807083 0.03149414 -43.614166 0.03149414 -87.22835" fill-rule="evenodd"/><path stroke="#595959" stroke-width="1.0" stroke-linejoin="round" stroke-linecap="butt" d="m472.0118 315.00262c0 -43.614166 0.01574707 -65.421265 0.03149414 -87.22835c0.01574707 -21.807083 0.03149414 -43.614166 0.03149414 -87.22835" fill-rule="evenodd"/><path fill="#eeeeee" d="m611.7021 348.51443l0 0c0 -18.490662 14.989685 -33.480316 33.480347 -33.480316l0 0c8.879517 0 17.395386 3.5273743 23.674133 9.806152c6.2788086 6.278778 9.806152 14.794647 9.806152 23.674164l0 0c0 18.490662 -14.989624 33.480316 -33.480286 33.480316l0 0c-18.490662 0 -33.480347 -14.989655 -33.480347 -33.480316z" fill-rule="evenodd"/><path stroke="#595959" stroke-width="1.0" stroke-linejoin="round" stroke-linecap="butt" d="m611.7021 348.51443l0 0c0 -18.490662 14.989685 -33.480316 33.480347 -33.480316l0 0c8.879517 0 17.395386 3.5273743 23.674133 9.806152c6.2788086 6.278778 9.806152 14.794647 9.806152 23.674164l0 0c0 18.490662 -14.989624 33.480316 -33.480286 33.480316l0 0c-18.490662 0 -33.480347 -14.989655 -33.480347 -33.480316z" fill-rule="evenodd"/><path fill="#000000" d="m640.7758 351.93445l1.71875 -0.140625q0.1875 1.25 0.875 1.890625q0.703125 0.625 1.6875 0.625q1.1875 0 2.0 -0.890625q0.828125 -0.890625 0.828125 -2.359375q0 -1.40625 -0.796875 -2.21875q-0.78125 -0.8125 -2.0625 -0.8125q-0.78125 0 -1.421875 0.359375q-0.640625 0.359375 -1.0 0.9375l-1.546875 -0.203125l1.296875 -6.859375l6.640625 0l0 1.5625l-5.328125 0l-0.71875 3.59375q1.203125 -0.84375 2.515625 -0.84375q1.75 0 2.953125 1.21875q1.203125 1.203125 1.203125 3.109375q0 1.8125 -1.046875 3.140625q-1.296875 1.625 -3.515625 1.625q-1.8125 0 -2.96875 -1.015625q-1.15625 -1.03125 -1.3125 -2.71875z" fill-rule="nonzero"/><path fill="#000000" fill-opacity="0.0" d="m495.68597 130.73978l149.51178 184.28345" fill-rule="evenodd"/><path stroke="#595959" stroke-width="1.0" stroke-linejoin="round" stroke-linecap="butt" d="m495.68597 130.73978l149.51178 184.28345" fill-rule="evenodd"/></g></svg>